<svg xmlns="http://www.w3.org/2000/svg" width="48" height="48" viewBox="0 0 24 24" role="img" aria-label="GitHub logo">
  <title>GitHub</title>
  <path fill="#FFFFFF" d="M12 .296a12 12 0 00-3.796 23.394c.6.111.82-.261.82-.58v-2.234c-3.338.726-4.042-1.416-4.042-1.416-.546-1.387-1.333-1.757-1.333-1.757-1.089-.745.083-.73.083-.73 1.205.085 1.84 1.237 1.84 1.237 1.07 1.834 2.808 1.304 3.492.997.108-.775.418-1.304.762-1.604-2.665-.303-5.466-1.332-5.466-5.93 0-1.31.468-2.381 1.235-3.221-.124-.303-.535-1.523.117-3.176 0 0 1.008-.322 3.301 1.23a11.5 11.5 0 016.006 0c2.292-1.552 3.298-1.23 3.298-1.23.653 1.653.242 2.873.119 3.176.77.84 1.233 1.911 1.233 3.221 0 4.61-2.804 5.624-5.476 5.92.429.37.812 1.102.812 2.222v3.293c0 .322.217.697.825.579A12.002 12.002 0 0012 .296z"></path>
</svg>
